<svg id="Layer_2" xmlns="http://www.w3.org/2000/svg" width="357.3" height="120.45" viewBox="0 0 357.3 120.45"><defs><style>.cls-1{fill:#231f20;}</style></defs><g id="Layer_1-2"><path class="cls-1" d="M0,118.35v-15.15L83.1,15.75l12.75,6.6H.6V5.85h103.05v15L20.4,108.6l-10.95-6.75h94.65v16.5H0Z"/><path class="cls-1" d="M130.35,22.2c-3.7,0-6.75-1.02-9.15-3.08-2.4-2.05-3.6-4.72-3.6-8.02s1.2-5.97,3.6-8.03c2.4-2.05,5.45-3.08,9.15-3.08s6.88,1.03,9.23,3.08c2.35,2.05,3.52,4.73,3.52,8.03s-1.18,5.98-3.52,8.02c-2.35,2.05-5.43,3.08-9.23,3.08ZM120.6,32.85l9.75,1.8,9.75-1.8v85.5h-19.5V32.85Z"/><path class="cls-1" d="M248.7,92.55c0,5.7-1.6,10.65-4.8,14.85-3.2,4.2-8.05,7.42-14.55,9.67-6.5,2.25-14.65,3.38-24.45,3.38s-18.85-1.27-26.25-3.82c-7.4-2.55-13.12-6.15-17.17-10.8-4.05-4.65-6.23-10.02-6.53-16.12h19.8c.6,3.2,2.22,6.03,4.88,8.48,2.65,2.45,6.15,4.33,10.5,5.62,4.35,1.3,9.32,1.95,14.92,1.95,8.1,0,14.2-.98,18.3-2.93,4.1-1.95,6.15-4.92,6.15-8.92,0-2.7-1.38-4.75-4.12-6.15-2.75-1.4-7.93-2.45-15.52-3.15l-16.65-1.5c-9-.8-16.1-2.42-21.3-4.88-5.2-2.45-8.9-5.45-11.1-9-2.2-3.55-3.3-7.32-3.3-11.33,0-5.8,1.8-10.65,5.4-14.55,3.6-3.9,8.6-6.87,15-8.92,6.4-2.05,13.85-3.08,22.35-3.08s16.65,1.23,23.55,3.67c6.9,2.45,12.4,5.85,16.5,10.2,4.1,4.35,6.4,9.38,6.9,15.08h-19.8c-.4-2.3-1.58-4.52-3.53-6.68-1.95-2.15-4.9-3.95-8.85-5.4-3.95-1.45-9.23-2.17-15.83-2.17-7,0-12.48.9-16.42,2.7-3.95,1.8-5.92,4.45-5.92,7.95,0,2.2,1.2,4.08,3.6,5.62,2.4,1.55,6.85,2.62,13.35,3.23l21.45,1.95c8.6.8,15.32,2.33,20.17,4.58,4.85,2.25,8.27,5.13,10.28,8.62,2,3.5,3,7.45,3,11.85Z"/><path class="cls-1" d="M283.95,101.4l-5.7-2.1,54-65.85h22.5l-72.15,84.9h-18.15V2.85h19.5v98.55ZM308.1,76.35l13.65-12.3,35.55,54.3h-22.95l-26.25-42Z"/></g></svg>